<svg xmlns="http://www.w3.org/2000/svg" viewBox="0 0 120 120" width="120" height="120">
  <title>WRONG — red paw stamp (matches REFERENCE-production-target)</title>
  <defs>
    <linearGradient id="rp" x1="0" y1="0" x2="0" y2="1">
      <stop offset="0" stop-color="#E5765F"/><stop offset="1" stop-color="#BE4634"/>
    </linearGradient>
  </defs>
  <rect x="5" y="5" width="110" height="110" rx="26" fill="#FBF3DC" stroke="#E2CFA3" stroke-width="3"/>
  <rect x="10.5" y="10.5" width="99" height="99" rx="21" fill="none" stroke="#FFFDF2" stroke-width="2.5"/>
  <ellipse cx="60" cy="95" rx="26" ry="5.5" fill="#7A5A2E" opacity=".14"/>
  <g stroke="#93321F" stroke-width="3" stroke-linejoin="round">
    <ellipse cx="39.5" cy="50" rx="8.5" ry="11" transform="rotate(-18 39.5 50)" fill="url(#rp)"/>
    <ellipse cx="60" cy="44" rx="9" ry="11.5" fill="url(#rp)"/>
    <ellipse cx="80.5" cy="50" rx="8.5" ry="11" transform="rotate(18 80.5 50)" fill="url(#rp)"/>
    <path d="M60 61c13.5 0 23 8 23 17.5 0 9.5 -10 14.5 -23 14.5s-23 -5 -23 -14.5c0 -9.5 9.5 -17.5 23 -17.5z" fill="url(#rp)"/>
  </g>
  <path d="M45.5 70c3 -4.5 8 -7 13 -7.4" stroke="#F8C9B9" stroke-width="4.5" fill="none" stroke-linecap="round"/>
  <ellipse cx="57" cy="40" rx="3" ry="4.5" fill="#F8C9B9" opacity=".8"/>
  <g fill="#D96045" stroke="#93321F" stroke-width="1.5" stroke-linejoin="round">
    <path d="M24 19q1.8 6 8 8q-6.2 2 -8 8q-1.8 -6 -8 -8q6.2 -2 8 -8z"/>
    <path d="M94 18q1.4 4.6 6 6q-4.6 1.4 -6 6q-1.4 -4.6 -6 -6q4.6 -1.4 6 -6z"/>
    <path d="M98 83q1.2 3.8 5 5q-3.8 1.2 -5 5q-1.2 -3.8 -5 -5q3.8 -1.2 5 -5z"/>
  </g>
  <circle cx="22" cy="88" r="2.5" fill="#D96045"/>
</svg>
