<svg xmlns="http://www.w3.org/2000/svg" width="420" height="420" viewBox="0 0 420 420">
<defs>
  <radialGradient id="burst" cx="0.5" cy="0.5" r="0.75">
    <stop offset="0" stop-color="#FFF3B0"/><stop offset="0.55" stop-color="#F5C243"/><stop offset="1" stop-color="#E89A25"/>
  </radialGradient>
  <filter id="d" x="-12%" y="-12%" width="124%" height="128%">
    <feDropShadow dx="0" dy="5" stdDeviation="5" flood-color="#7E3320" flood-opacity="0.35"/>
  </filter>
</defs>
<polygon points="415.0,210.0 324.0,240.5 374.5,305.0 293.4,293.4 312.5,387.5 240.5,324.0 210.0,400.0 179.5,324.0 107.5,387.5 126.6,293.4 45.5,305.0 96.0,240.5 5.0,210.0 96.0,179.5 45.5,115.0 126.6,126.6 107.5,32.5 179.5,96.0 210.0,20.0 240.5,96.0 312.5,32.5 293.4,126.6 374.5,115.0 324.0,179.5" fill="url(#burst)" stroke="#D8821E" stroke-width="5" stroke-linejoin="round" filter="url(#d)"/>
<text x="210" y="228" text-anchor="middle" transform="rotate(-7 210 210)" font-family="'Baloo 2','Fredoka','Nunito',system-ui,sans-serif" font-size="60" font-weight="900" letter-spacing="1" fill="none" stroke="#FFF6DC" stroke-width="14" stroke-linejoin="round">CRITICAL!</text>
<text x="210" y="228" text-anchor="middle" transform="rotate(-7 210 210)" font-family="'Baloo 2','Fredoka','Nunito',system-ui,sans-serif" font-size="60" font-weight="900" letter-spacing="1" fill="#D14B22">CRITICAL!</text>
</svg>
