<svg xmlns="http://www.w3.org/2000/svg" viewBox="0 0 120 120" width="120" height="120">
  <title>DAILY GOAL — calendar check stamp (reference badge family)</title>
  <rect x="5" y="5" width="110" height="110" rx="26" fill="#FBF3DC" stroke="#E2CFA3" stroke-width="3"/>
  <rect x="10.5" y="10.5" width="99" height="99" rx="21" fill="none" stroke="#FFFDF2" stroke-width="2.5"/>
  <ellipse cx="60" cy="97" rx="25" ry="5" fill="#7A5A2E" opacity=".14"/>
  <rect x="36" y="32" width="48" height="52" rx="7" fill="#FFF9EA" stroke="#7A5A44" stroke-width="3.5"/>
  <rect x="36" y="32" width="48" height="15" rx="7" fill="#6EB6E8" stroke="#7A5A44" stroke-width="3.5"/>
  <path d="M36 47h48" stroke="#7A5A44" stroke-width="2.5"/>
  <path d="M47 26v9M73 26v9" stroke="#7A5A44" stroke-width="3.5" stroke-linecap="round"/>
  <path d="M48 64 57 73 74 55" fill="none" stroke="#2F7F4C" stroke-width="6.5" stroke-linecap="round" stroke-linejoin="round"/>
  <g fill="#43A167" stroke="#23653C" stroke-width="1.5" stroke-linejoin="round">
    <path d="M24 22q1.6 5 7 7q-5.4 2 -7 7q-1.6 -5 -7 -7q5.4 -2 7 -7z"/>
    <path d="M97 84q1.3 4 5.5 5.5q-4.2 1.5 -5.5 5.5q-1.3 -4 -5.5 -5.5q4.2 -1.5 5.5 -5.5z"/>
  </g>
  <g fill="#E9B33A" stroke="#8A5C14" stroke-width="1.4" stroke-linejoin="round">
    <path d="M96 20q1.3 4 5.5 5.5q-4.2 1.5 -5.5 5.5q-1.3 -4 -5.5 -5.5q4.2 -1.5 5.5 -5.5z"/>
  </g>
  <circle cx="24" cy="90" r="2.5" fill="#D96045"/>
</svg>
