<svg xmlns="http://www.w3.org/2000/svg" viewBox="0 0 120 120" width="120" height="120">
  <title>LEVEL UP — rising star stamp (reference badge family)</title>
  <defs>
    <linearGradient id="lu" x1="0" y1="0" x2="0" y2="1">
      <stop offset="0" stop-color="#F8D468"/><stop offset="1" stop-color="#EBA92E"/>
    </linearGradient>
  </defs>
  <rect x="5" y="5" width="110" height="110" rx="26" fill="#FBF3DC" stroke="#E2CFA3" stroke-width="3"/>
  <rect x="10.5" y="10.5" width="99" height="99" rx="21" fill="none" stroke="#FFFDF2" stroke-width="2.5"/>
  <g fill="none" stroke-linecap="round" stroke-linejoin="round">
    <path d="M38 92 60 74 82 92" stroke="#2F7F4C" stroke-width="8"/>
    <path d="M42 76 60 61 78 76" stroke="#5EB273" stroke-width="7" opacity=".75"/>
  </g>
  <path d="M60 18 66.5 32 81.5 34 70.5 44.5 73 59.5 60 52 47 59.5 49.5 44.5 38.5 34 53.5 32z"
        fill="url(#lu)" stroke="#8A5A14" stroke-width="3" stroke-linejoin="round"/>
  <path d="M56 28 60 36 56 39 53 35z" fill="#FFF6D8" opacity=".85"/>
  <g fill="#E9B33A" stroke="#8A5C14" stroke-width="1.5" stroke-linejoin="round">
    <path d="M25 30q1.6 5 7 7q-5.4 2 -7 7q-1.6 -5 -7 -7q5.4 -2 7 -7z"/>
    <path d="M96 26q1.3 4 5.5 5.5q-4.2 1.5 -5.5 5.5q-1.3 -4 -5.5 -5.5q4.2 -1.5 5.5 -5.5z"/>
  </g>
  <circle cx="94" cy="70" r="2.5" fill="#43A167"/>
  <circle cx="26" cy="66" r="2.5" fill="#D96045"/>
</svg>
