<svg xmlns="http://www.w3.org/2000/svg" width="420" height="440" viewBox="0 0 420 440">
<defs>
  <radialGradient id="cream" cx="0.42" cy="0.32" r="0.9">
    <stop offset="0" stop-color="#F8EFC8"/><stop offset="1" stop-color="#E8D79F"/>
  </radialGradient>
  <radialGradient id="bean" cx="0.4" cy="0.3" r="0.95">
    <stop offset="0" stop-color="#D96A4A"/><stop offset="1" stop-color="#A84329"/>
  </radialGradient>
  <filter id="d" x="-15%" y="-15%" width="130%" height="135%">
    <feDropShadow dx="0" dy="6" stdDeviation="6" flood-color="#4A2A1E" flood-opacity="0.35"/>
  </filter>
</defs>
<g transform="translate(210,252) scale(1.28)">
  <g fill="#4A2A1E" stroke="#4A2A1E" stroke-width="12" stroke-linejoin="round" filter="url(#d)"><ellipse cx="0" cy="26" rx="86" ry="66"/>
<ellipse cx="-88" cy="-30" rx="30" ry="40" transform="rotate(-22 -88 -30)"/>
<ellipse cx="-32" cy="-66" rx="30" ry="42"/>
<ellipse cx="32" cy="-66" rx="30" ry="42"/>
<ellipse cx="88" cy="-30" rx="30" ry="40" transform="rotate(22 88 -30)"/></g>
  <g fill="url(#cream)"><ellipse cx="0" cy="26" rx="86" ry="66"/>
<ellipse cx="-88" cy="-30" rx="30" ry="40" transform="rotate(-22 -88 -30)"/>
<ellipse cx="-32" cy="-66" rx="30" ry="42"/>
<ellipse cx="32" cy="-66" rx="30" ry="42"/>
<ellipse cx="88" cy="-30" rx="30" ry="40" transform="rotate(22 88 -30)"/></g>
  <g fill="url(#bean)">
<ellipse cx="-88" cy="-32" rx="17" ry="25" transform="rotate(-22 -88 -32)"/>
<ellipse cx="-32" cy="-68" rx="17" ry="27"/>
<ellipse cx="32" cy="-68" rx="17" ry="27"/>
<ellipse cx="88" cy="-32" rx="17" ry="25" transform="rotate(22 88 -32)"/>
</g>
<path fill="url(#bean)" d="M0,2 C26,2 46,18 46,38 C46,60 26,72 0,72 C-26,72 -46,60 -46,38 C-46,18 -26,2 0,2 Z"/>
<ellipse cx="-12" cy="16" rx="11" ry="7" fill="#FFFFFF" opacity="0.3"/>
</g>
<path transform="translate(74,66) scale(1.6)" fill="#D96A4A" opacity="1" d="M0,-10 C1,-3 3,-1 10,0 C3,1 1,3 0,10 C-1,3 -3,1 -10,0 C-3,-1 -1,-3 0,-10 Z"/>
<path transform="translate(204,30) scale(2.4)" fill="#D96A4A" opacity="1" d="M0,-10 C1,-3 3,-1 10,0 C3,1 1,3 0,10 C-1,3 -3,1 -10,0 C-3,-1 -1,-3 0,-10 Z"/>
<path transform="translate(336,62) scale(1.3)" fill="#D96A4A" opacity="0.9" d="M0,-10 C1,-3 3,-1 10,0 C3,1 1,3 0,10 C-1,3 -3,1 -10,0 C-3,-1 -1,-3 0,-10 Z"/>
<path transform="translate(376,148) scale(1.0)" fill="#D96A4A" opacity="0.7" d="M0,-10 C1,-3 3,-1 10,0 C3,1 1,3 0,10 C-1,3 -3,1 -10,0 C-3,-1 -1,-3 0,-10 Z"/>
<path transform="translate(44,156) scale(0.9)" fill="#D96A4A" opacity="0.7" d="M0,-10 C1,-3 3,-1 10,0 C3,1 1,3 0,10 C-1,3 -3,1 -10,0 C-3,-1 -1,-3 0,-10 Z"/>
</svg>
