<svg xmlns="http://www.w3.org/2000/svg" style="display:none">
  <symbol id="audio" viewBox="0 0 24 24">
    <use href="#sound"/>
  </symbol>
  <symbol id="back" viewBox="0 0 24 24">
    <path d="M15 6l-6 6 6 6" fill="none" stroke="currentColor" stroke-width="2.5" stroke-linecap="round" stroke-linejoin="round"/>
  </symbol>
  <symbol id="battle" viewBox="0 0 24 24">
    <use href="#fight"/>
  </symbol>
  <symbol id="coin" viewBox="0 0 24 24">
    <circle cx="12" cy="12" r="8.5" fill="none" stroke="currentColor" stroke-width="2"/>
    <circle cx="12" cy="12" r="5.5" fill="none" stroke="currentColor" stroke-width="2"/>
    <path d="M12 8.5v7M9.5 10.5h5M9.5 13.5h5" stroke="currentColor" stroke-width="2" stroke-linecap="round"/>
  </symbol>
  <symbol id="diamond" viewBox="0 0 24 24">
    <path d="M12 4l6.5 7L12 20 5.5 11z" fill="none" stroke="currentColor" stroke-width="2" stroke-linejoin="round"/>
    <path d="M8 4h8M5.5 11h13" fill="none" stroke="currentColor" stroke-width="2" stroke-linecap="round"/>
  </symbol>
  <symbol id="flashcards" viewBox="0 0 24 24">
    <use href="#cards"/>
  </symbol>
  <symbol id="play" viewBox="0 0 24 24">
    <path fill="currentColor" d="M8 5v14l11-7z"/>
  </symbol>
  <symbol id="pause" viewBox="0 0 24 24">
    <rect x="7" y="5" width="4" height="14" rx="1.5" fill="currentColor"/>
    <rect x="13" y="5" width="4" height="14" rx="1.5" fill="currentColor"/>
  </symbol>
  <symbol id="paw" viewBox="0 0 24 24">
    <ellipse cx="8" cy="8.25" rx="2" ry="2.75" fill="currentColor"/>
    <ellipse cx="12" cy="6.75" rx="2" ry="3" fill="currentColor"/>
    <ellipse cx="16" cy="8.25" rx="2" ry="2.75" fill="currentColor"/>
    <ellipse cx="18.25" cy="11.75" rx="1.75" ry="2.4" fill="currentColor"/>
    <path d="M12 19c3.4 0 5.5-1.5 5.5-3.9 0-1.7-1.2-3.4-3-4.3-.7-.3-1.5-.5-2.5-.5s-1.8.2-2.5.5c-1.8.9-3 2.6-3 4.3C6.5 17.5 8.6 19 12 19z" fill="currentColor"/>
  </symbol>
  <symbol id="progress" viewBox="0 0 24 24">
    <use href="#chart"/>
  </symbol>
  <symbol id="quests" viewBox="0 0 24 24">
    <path d="M7 5h10a2 2 0 0 1 2 2v12l-3-2-3 2-3-2-3 2V7a2 2 0 0 1 2-2z" fill="none" stroke="currentColor" stroke-width="2" stroke-linejoin="round"/>
    <path d="M9 9h6M9 12h6" stroke="currentColor" stroke-width="2" stroke-linecap="round"/>
    <path d="M9 15l1.8 1.8L15 12.6" fill="none" stroke="currentColor" stroke-width="2" stroke-linecap="round" stroke-linejoin="round"/>
  </symbol>
  <symbol id="wrong" viewBox="0 0 24 24">
    <path d="M7 7l10 10M17 7L7 17" fill="none" stroke="currentColor" stroke-width="2.5" stroke-linecap="round"/>
  </symbol>
  <symbol id="target" viewBox="0 0 24 24">
    <circle cx="12" cy="12" r="9" fill="none" stroke="currentColor" stroke-width="2"/>
    <circle cx="12" cy="12" r="5" fill="none" stroke="currentColor" stroke-width="2"/>
    <circle cx="12" cy="12" r="2" fill="currentColor"/>
  </symbol>
  <symbol id="cards" viewBox="0 0 24 24">
    <rect x="5" y="4" width="10" height="14" rx="2" fill="none" stroke="currentColor" stroke-width="2"/>
    <rect x="9" y="7" width="10" height="14" rx="2" fill="none" stroke="currentColor" stroke-width="2"/>
    <path d="M12 13h4M12 16h3" stroke="currentColor" stroke-width="2" stroke-linecap="round"/>
  </symbol>
  <symbol id="shop" viewBox="0 0 24 24">
    <path d="M6 9h12l-1 11H7z" fill="none" stroke="currentColor" stroke-width="2" stroke-linejoin="round"/>
    <path d="M8 9a4 4 0 0 1 8 0" fill="none" stroke="currentColor" stroke-width="2" stroke-linecap="round"/>
    <path d="M9 14h6" stroke="currentColor" stroke-width="2" stroke-linecap="round"/>
  </symbol>
  <symbol id="home" viewBox="0 0 24 24">
    <path d="M5 10.5L12 5l7 5.5V19H5z" fill="none" stroke="currentColor" stroke-width="2" stroke-linejoin="round"/>
    <path d="M10 19v-5h4v5" fill="none" stroke="currentColor" stroke-width="2" stroke-linejoin="round"/>
  </symbol>
  <symbol id="street" viewBox="0 0 24 24">
    <path d="M4 18h16" stroke="currentColor" stroke-width="2" stroke-linecap="round"/>
    <path d="M8 18v-6h8v6" fill="none" stroke="currentColor" stroke-width="2" stroke-linejoin="round"/>
    <path d="M7 12l5-4 5 4" fill="none" stroke="currentColor" stroke-width="2" stroke-linecap="round" stroke-linejoin="round"/>
  </symbol>
  <symbol id="chart" viewBox="0 0 24 24">
    <path d="M4 19h16" stroke="currentColor" stroke-width="2" stroke-linecap="round"/>
    <rect x="6" y="11" width="3" height="8" rx="1" fill="currentColor"/>
    <rect x="11" y="7" width="3" height="12" rx="1" fill="currentColor"/>
    <rect x="16" y="4" width="3" height="15" rx="1" fill="currentColor"/>
  </symbol>
  <symbol id="trophy" viewBox="0 0 24 24">
    <path d="M8 5h8v4a4 4 0 0 1-8 0z" fill="none" stroke="currentColor" stroke-width="2"/>
    <path d="M8 7H4v1a4 4 0 0 0 4 4M16 7h4v1a4 4 0 0 1-4 4M12 13v5M8 20h8" fill="none" stroke="currentColor" stroke-width="2" stroke-linecap="round"/>
  </symbol>
  <symbol id="help" viewBox="0 0 24 24">
    <circle cx="12" cy="12" r="9" fill="none" stroke="currentColor" stroke-width="2"/>
    <path d="M9.5 9a2.7 2.7 0 0 1 5.1 1.2c0 2.4-2.6 2.5-2.6 4.3" fill="none" stroke="currentColor" stroke-width="2" stroke-linecap="round"/>
    <circle cx="12" cy="18" r="1" fill="currentColor"/>
  </symbol>
  <symbol id="sound" viewBox="0 0 24 24">
    <path d="M4 14V10h4l5-4v12l-5-4z" fill="currentColor"/>
    <path d="M16 9a4 4 0 0 1 0 6M18.5 6.5a8 8 0 0 1 0 11" fill="none" stroke="currentColor" stroke-width="2" stroke-linecap="round"/>
  </symbol>
  <symbol id="muted" viewBox="0 0 24 24">
    <path d="M4 14V10h4l5-4v12l-5-4z" fill="currentColor"/>
    <path d="M17 9l4 6M21 9l-4 6" fill="none" stroke="currentColor" stroke-width="2" stroke-linecap="round"/>
  </symbol>
  <symbol id="bell" viewBox="0 0 24 24">
    <path d="M7 17h10l-1.5-2.5V10a3.5 3.5 0 0 0-7 0v4.5z" fill="none" stroke="currentColor" stroke-width="2" stroke-linejoin="round"/>
    <path d="M10 19a2 2 0 0 0 4 0" stroke="currentColor" stroke-width="2" stroke-linecap="round"/>
  </symbol>
  <symbol id="bell-off" viewBox="0 0 24 24">
    <path d="M7 17h10l-1.5-2.5V10a3.5 3.5 0 0 0-7 0v4.5z" fill="none" stroke="currentColor" stroke-width="2" stroke-linejoin="round"/>
    <path d="M5 5l14 14" stroke="currentColor" stroke-width="2" stroke-linecap="round"/>
  </symbol>
  <symbol id="close" viewBox="0 0 24 24">
    <path d="M6 6l12 12M18 6L6 18" stroke="currentColor" stroke-width="2.5" stroke-linecap="round"/>
  </symbol>
  <symbol id="infinity" viewBox="0 0 24 24">
    <path d="M7.5 15C5.6 15 4 13.7 4 12s1.6-3 3.5-3c3.2 0 5.8 6 9 6 1.9 0 3.5-1.3 3.5-3s-1.6-3-3.5-3c-3.2 0-5.8 6-9 6z" fill="none" stroke="currentColor" stroke-width="2" stroke-linecap="round"/>
  </symbol>
  <symbol id="fight" viewBox="0 0 24 24">
    <path d="M6 18L18 6M14 6h4v4M7 6l11 11M18 18h-4v-4" fill="none" stroke="currentColor" stroke-width="2" stroke-linecap="round" stroke-linejoin="round"/>
  </symbol>
  <symbol id="pencil" viewBox="0 0 24 24">
    <path d="M4 17.5V21h3.5L18.7 9.8l-3.5-3.5zM17 4.5l2.5 2.5" fill="none" stroke="currentColor" stroke-width="2" stroke-linejoin="round"/>
  </symbol>
  <symbol id="check" viewBox="0 0 24 24">
    <path d="M5 12.5l4.2 4.2L19 7" fill="none" stroke="currentColor" stroke-width="2.5" stroke-linecap="round" stroke-linejoin="round"/>
  </symbol>
  <symbol id="repeat" viewBox="0 0 24 24">
    <path d="M7 7h9a4 4 0 0 1 0 8H8M7 7l3-3M7 7l3 3M17 17H8a4 4 0 0 1 0-8h8M17 17l-3-3M17 17l-3 3" fill="none" stroke="currentColor" stroke-width="2" stroke-linecap="round" stroke-linejoin="round"/>
  </symbol>
  <symbol id="streak" viewBox="0 0 24 24">
    <path d="M13 3c3 3 5 6 5 10a6 6 0 0 1-12 0c0-3 2-5 4-7-.2 2 .5 3.4 2 4 .3-2 .6-4.5 1-7z" fill="currentColor"/>
  </symbol>
  <symbol id="heart" viewBox="0 0 24 24">
    <path d="M12 20s-7-4.5-9-9a4.4 4.4 0 0 1 7-5 4.4 4.4 0 0 1 7 5c-2 4.5-9 9-9 9z" fill="currentColor"/>
  </symbol>
  <symbol id="heart-empty" viewBox="0 0 24 24">
    <path d="M12 20s-7-4.5-9-9a4.4 4.4 0 0 1 7-5 4.4 4.4 0 0 1 7 5c-2 4.5-9 9-9 9z" fill="none" stroke="currentColor" stroke-width="2" stroke-linejoin="round"/>
  </symbol>
  <symbol id="book" viewBox="0 0 24 24">
    <path d="M4 5.5A1.5 1.5 0 0 1 5.5 4H11v15H5.5A1.5 1.5 0 0 0 4 20.5z" fill="none" stroke="currentColor" stroke-width="2" stroke-linejoin="round"/>
    <path d="M20 5.5A1.5 1.5 0 0 0 18.5 4H13v15h5.5A1.5 1.5 0 0 1 20 20.5z" fill="none" stroke="currentColor" stroke-width="2" stroke-linejoin="round"/>
  </symbol>
  <symbol id="learn" viewBox="0 0 24 24"><use href="#book"/></symbol>
  <symbol id="quest" viewBox="0 0 24 24"><use href="#target"/></symbol>
  <symbol id="review" viewBox="0 0 24 24"><use href="#repeat"/></symbol>
  <symbol id="retry" viewBox="0 0 24 24"><use href="#repeat"/></symbol>
  <symbol id="headphones" viewBox="0 0 24 24"><use href="#sound"/></symbol>
  <symbol id="secondary-coin" viewBox="0 0 24 24"><use href="#coin"/></symbol>
  <symbol id="focus-heart" viewBox="0 0 24 24"><use href="#heart"/></symbol>
  <symbol id="collection" viewBox="0 0 24 24">
    <rect x="4" y="4" width="7" height="7" rx="1.5" fill="none" stroke="currentColor" stroke-width="2"/>
    <rect x="13" y="4" width="7" height="7" rx="1.5" fill="none" stroke="currentColor" stroke-width="2"/>
    <rect x="4" y="13" width="7" height="7" rx="1.5" fill="none" stroke="currentColor" stroke-width="2"/>
    <rect x="13" y="13" width="7" height="7" rx="1.5" fill="none" stroke="currentColor" stroke-width="2"/>
  </symbol>
  <symbol id="settings" viewBox="0 0 24 24">
    <circle cx="12" cy="12" r="3" fill="none" stroke="currentColor" stroke-width="2"/>
    <path d="M12 3v3M12 18v3M3 12h3M18 12h3M5.6 5.6l2.1 2.1M16.3 16.3l2.1 2.1M18.4 5.6l-2.1 2.1M7.7 16.3l-2.1 2.1" stroke="currentColor" stroke-width="2" stroke-linecap="round"/>
  </symbol>
  <symbol id="calendar" viewBox="0 0 24 24">
    <rect x="4" y="5" width="16" height="15" rx="2" fill="none" stroke="currentColor" stroke-width="2"/>
    <path d="M4 9h16M8 3v4M16 3v4" stroke="currentColor" stroke-width="2" stroke-linecap="round"/>
  </symbol>
  <symbol id="star" viewBox="0 0 24 24">
    <path d="M12 3.5l2.6 5.3 5.9.9-4.2 4.1 1 5.8L12 17l-5.3 2.8 1-5.8L3.5 9.7l5.9-.9z" fill="none" stroke="currentColor" stroke-width="2" stroke-linejoin="round"/>
  </symbol>
  <symbol id="mastery" viewBox="0 0 24 24">
    <circle cx="12" cy="9" r="5" fill="none" stroke="currentColor" stroke-width="2"/>
    <path d="M9 13l-1.5 7 4.5-2.5L16.5 20 15 13" fill="none" stroke="currentColor" stroke-width="2" stroke-linejoin="round"/>
  </symbol>
  <symbol id="next" viewBox="0 0 24 24"><path d="M9 6l6 6-6 6" fill="none" stroke="currentColor" stroke-width="2.5" stroke-linecap="round" stroke-linejoin="round"/></symbol>
  <symbol id="previous" viewBox="0 0 24 24"><use href="#back"/></symbol>
</svg>
