<svg xmlns="http://www.w3.org/2000/svg" viewBox="0 0 120 120" width="120" height="120">
  <title>Correct stamp — green paw, transparent, for overlay use</title>
  <defs>
    <linearGradient id="sp" x1="0" y1="0" x2="0" y2="1">
      <stop offset="0" stop-color="#5EB273"/><stop offset="1" stop-color="#2F7F4C"/>
    </linearGradient>
  </defs>
  <g transform="rotate(-8 60 60)">
    <g stroke="#23653C" stroke-width="3.5" stroke-linejoin="round">
      <ellipse cx="39.5" cy="50" rx="8.5" ry="11" transform="rotate(-18 39.5 50)" fill="url(#sp)"/>
      <ellipse cx="60" cy="44" rx="9" ry="11.5" fill="url(#sp)"/>
      <ellipse cx="80.5" cy="50" rx="8.5" ry="11" transform="rotate(18 80.5 50)" fill="url(#sp)"/>
      <path d="M60 61c13.5 0 23 8 23 17.5 0 9.5 -10 14.5 -23 14.5s-23 -5 -23 -14.5c0 -9.5 9.5 -17.5 23 -17.5z" fill="url(#sp)"/>
    </g>
    <path d="M45.5 70c3 -4.5 8 -7 13 -7.4" stroke="#C4E9CE" stroke-width="4.5" fill="none" stroke-linecap="round"/>
  </g>
  <g fill="#43A167" stroke="#23653C" stroke-width="1.5" stroke-linejoin="round">
    <path d="M22 24q1.8 6 8 8q-6.2 2 -8 8q-1.8 -6 -8 -8q6.2 -2 8 -8z"/>
    <path d="M98 78q1.3 4 5.5 5.5q-4.2 1.5 -5.5 5.5q-1.3 -4 -5.5 -5.5q4.2 -1.5 5.5 -5.5z"/>
  </g>
</svg>
