<svg xmlns="http://www.w3.org/2000/svg" width="96" height="96" viewBox="0 0 96 96">
<defs><linearGradient id="t" x1="0" y1="0" x2="0" y2="1">
  <stop offset="0" stop-color="#43A374"/><stop offset="1" stop-color="#256A49"/></linearGradient></defs>
<rect x="3" y="3" width="90" height="90" rx="22" fill="url(#t)" stroke="#1E5A3E" stroke-width="4"/>
<rect x="9" y="8" width="78" height="22" rx="11" fill="#FFFFFF" opacity="0.18"/>
<g fill="#F7EFD9" stroke="none"><rect x="44" y="16" width="8" height="14" rx="3" transform="rotate(0 48 48)"/><rect x="44" y="16" width="8" height="14" rx="3" transform="rotate(45 48 48)"/><rect x="44" y="16" width="8" height="14" rx="3" transform="rotate(90 48 48)"/><rect x="44" y="16" width="8" height="14" rx="3" transform="rotate(135 48 48)"/><rect x="44" y="16" width="8" height="14" rx="3" transform="rotate(180 48 48)"/><rect x="44" y="16" width="8" height="14" rx="3" transform="rotate(225 48 48)"/><rect x="44" y="16" width="8" height="14" rx="3" transform="rotate(270 48 48)"/><rect x="44" y="16" width="8" height="14" rx="3" transform="rotate(315 48 48)"/><circle cx="48" cy="48" r="22"/><circle cx="48" cy="48" r="10" fill="#2E7D57"/></g>
</svg>
